<svg xmlns="http://www.w3.org/2000/svg" viewBox="0 0 700 700"><g id="play_square"><path d="M522.87778,26.585,180.12441,24.99978A152.82259,152.82259,0,0,0,26.59225,177.12258L25.00165,519.874A152.83716,152.83716,0,0,0,177.12254,673.41537l342.753,1.58486a152.83482,152.83482,0,0,0,153.5398-152.12432l1.58295-342.74955A152.83166,152.83166,0,0,0,522.87778,26.585Z" style="fill:#ff4747"/><path d="M533.06947,340.1968,218.022,180.84748a12.62138,12.62138,0,0,0-18.31482,11.20531l-1.46366,315.77743a12.6212,12.6212,0,0,0,18.21044,11.37546L532.96126,362.77986a12.6257,12.6257,0,0,0,.10821-22.58306Z" style="fill:#fff"/></g></svg>